<?xml version="1.0" standalone="no"?>
<!DOCTYPE svg PUBLIC "-//W3C//DTD SVG 20010904//EN"
 "http://www.w3.org/TR/2001/REC-SVG-20010904/DTD/svg10.dtd">
<svg version="1.0" xmlns="http://www.w3.org/2000/svg"
 width="417.000000pt" height="416.000000pt" viewBox="0 0 417.000000 416.000000"
 preserveAspectRatio="xMidYMid meet">
<metadata>
Created by potrace 1.15, written by Peter Selinger 2001-2017
</metadata>
<g transform="translate(0.000000,416.000000) scale(0.100000,-0.100000)"
fill="#CC1C68" stroke="none">
<path d="M2170 4145 c-41 -7 -109 -22 -150 -33 -76 -21 -1124 -444 -1257 -508
-237 -113 -459 -326 -593 -569 -172 -312 -212 -721 -104 -1060 9 -27 79 -205
156 -395 153 -378 154 -379 270 -456 88 -59 203 -100 345 -124 139 -24 191
-25 291 -4 97 20 159 46 244 101 109 71 168 160 168 252 0 89 -49 184 -110
216 -38 19 -121 19 -168 -1 l-37 -15 26 -16 c60 -36 83 -140 45 -198 -26 -39
-99 -69 -153 -61 -128 17 -197 110 -169 229 41 171 166 268 346 268 183 0 328
-93 401 -256 34 -76 38 -218 9 -305 -54 -160 -167 -281 -386 -413 -186 -112
-435 -177 -632 -164 l-83 5 17 -27 c196 -310 544 -534 927 -597 l107 -17 88
32 c269 101 491 239 675 419 499 490 692 944 637 1502 -16 168 -54 379 -86
481 -110 351 -390 649 -671 715 -155 37 -302 -4 -411 -113 -79 -78 -97 -126
-97 -248 1 -109 15 -157 77 -265 34 -60 40 -57 53 22 9 55 61 118 123 150 217
110 444 -54 444 -322 0 -173 -134 -310 -348 -355 -125 -27 -217 -16 -329 40
-174 85 -298 267 -350 510 -22 103 -23 294 -1 392 46 212 148 370 313 489 132
95 266 137 438 137 226 0 421 -71 635 -231 525 -392 851 -934 969 -1612 35
-200 44 -319 44 -562 0 -131 1 -238 3 -238 7 0 115 171 142 225 144 290 180
651 96 966 -23 88 -456 1163 -516 1284 -194 387 -568 660 -1003 730 -108 18
-331 18 -435 0z m-1086 -982 c-133 -222 -103 -530 80 -829 l25 -41 -72 4 c-86
6 -200 -16 -274 -52 -69 -34 -148 -106 -194 -178 l-37 -57 -12 52 c-64 283 33
616 263 903 47 59 238 255 249 255 3 0 -9 -26 -28 -57z m1577 -1431 c-47 -221
-146 -452 -262 -615 -63 -88 -230 -257 -286 -289 l-30 -17 23 79 c77 265 38
538 -104 739 l-17 24 30 -7 c17 -3 80 -9 141 -13 192 -10 341 38 457 147 34
32 64 57 66 55 2 -2 -6 -49 -18 -103z"/>
<path d="M3486 1770 c-21 -454 -141 -856 -370 -1233 -42 -71 -76 -131 -74
-133 6 -6 301 117 393 163 123 62 122 60 142 193 21 139 24 529 5 685 -17 137
-49 326 -71 410 l-18 70 -7 -155z"/>
</g>
</svg>
